<?xml version="1.0" encoding="UTF-8" standalone="no"?>
<svg width="60px" height="60px" viewBox="0 0 60 60" version="1.1" xmlns="http://www.w3.org/2000/svg" xmlns:xlink="http://www.w3.org/1999/xlink" xmlns:sketch="http://www.bohemiancoding.com/sketch/ns">
    <!-- Generator: Sketch 3.2.2 (9983) - http://www.bohemiancoding.com/sketch -->
    <title>Fingerpinch</title>
    <desc>Created with Sketch.</desc>
    <defs></defs>
    <g id="stroked" stroke="none" stroke-width="1" fill="none" fill-rule="evenodd" sketch:type="MSPage">
        <g id="Interaction" sketch:type="MSLayerGroup" transform="translate(-362.000000, -1084.000000)" stroke="#535353" stroke-width="2" stroke-linecap="round" stroke-linejoin="round">
            <g id="Fingerpinch" transform="translate(378.000000, 1085.538452)" sketch:type="MSShapeGroup">
                <path d="M10.9671033,46.3528259 C10.9671033,46.3528259 4.73363496,41.0441269 2.99329613,36.2414338 C1.25145958,31.4387407 1.20053745,28.300923 0.195574144,25.8043368 C-0.807891451,23.3077507 2.32681525,22.3466304 3.33028084,22.8584524 C4.33524415,23.3717284 6.11302573,25.9962701 6.58180891,27.8530788 C7.05059209,29.7098875 6.92478446,31.2468074 7.48792336,31.6946517 L8.16638592,11.2188646 C8.16638592,11.2188646 8.85533245,9 10.597169,9 C12.3375078,9 13.1148192,10.6008977 13.1148192,11.0487419 C13.1148192,11.4980402 13.209175,23.1100013 13.209175,23.1100013 L13.6764604,19.1273865 C13.6764604,19.1273865 14.4387947,17.4799595 16.5146206,17.4799595 C18.5904464,17.4799595 18.7432128,19.5941333 18.7432128,19.5941333 L19.3707533,23.650904 L19.304854,20.8838665 C19.304854,20.8853205 19.6927609,19.2102668 21.8344859,19.2102668 C23.9777087,19.2102668 24.3716064,21.195031 24.3716064,22.3466304 C24.3716064,23.4996839 25,26.8523763 25,26.8523763 C25,26.8523763 25.3960968,22.8584521 27.2727273,22.8584521 C29.14786,22.8584521 30,24.1394614 30,25.6763813 L30,39.3399924 C30,39.3399924 28.9471669,43.7512581 27.2727273,45.8 L27.2727273,50.0902476 C27.2727273,52.801829 25.0736783,55 22.3583904,55 L15.8814402,55 C13.1673269,55 10.9671033,52.795579 10.9671033,50.0953098 L10.9671033,46.3528259 Z" id="Imported-Layers"></path>
                <path d="M10.9984655,0.228085637 L10.9984655,3.22808564 M18.0279206,3.60793154 L15.6964827,5.49589271 M19.7719799,11.2344192 L16.8488697,10.5595661 M2.22495105,11.2344192 L5.14806125,10.5595661 M3.96901043,3.60793154 L6.30044832,5.49589271" id="Line"></path>
            </g>
        </g>
    </g>
</svg>